<?xml version="1.0" encoding="UTF-8"?>
<svg width="1024" height="1024" viewBox="0 0 1024 1024" fill="none" xmlns="http://www.w3.org/2000/svg">
  <defs>
    <linearGradient id="bg" x1="140" y1="80" x2="900" y2="940" gradientUnits="userSpaceOnUse">
      <stop stop-color="#2563eb"/>
      <stop offset="1" stop-color="#1e40af"/>
    </linearGradient>
    <filter id="shadow" x="140" y="116" width="744" height="792" filterUnits="userSpaceOnUse" color-interpolation-filters="sRGB">
      <feDropShadow dx="0" dy="26" stdDeviation="24" flood-color="#0f172a" flood-opacity="0.16"/>
    </filter>
  </defs>
  <rect width="1024" height="1024" rx="240" fill="url(#bg)"/>
  <circle cx="190" cy="180" r="94" fill="#93c5fd" fill-opacity="0.26"/>
  <circle cx="844" cy="208" r="64" fill="white" fill-opacity="0.14"/>
  <circle cx="838" cy="838" r="118" fill="#93c5fd" fill-opacity="0.16"/>
  <g filter="url(#shadow)">
    <rect x="156" y="156" width="712" height="712" rx="188" fill="white" fill-opacity="0.94"/>
  </g>
  <circle cx="512" cy="512" r="250" fill="#93c5fd" fill-opacity="0.28"/>
  <circle cx="512" cy="512" r="206" fill="white" fill-opacity="0.96"/>
  
  <path d="M394 584C394 528 430 490 474 490C504 490 526 512 526 542V632H446C418 632 394 610 394 584Z" fill="#ffffff"/>
  <path d="M630 584C630 528 594 490 550 490C520 490 498 512 498 542V632H578C606 632 630 610 630 584Z" fill="#93c5fd"/>
  <path d="M470 648H554" stroke="#2563eb" stroke-width="18" stroke-linecap="round"/>
  <path d="M744 274L756 304L786 316L756 328L744 358L732 328L702 316L732 304L744 274Z" fill="#ffffff" fill-opacity="0.82"/>
  <path d="M286 720L298 748L326 760L298 772L286 800L274 772L246 760L274 748L286 720Z" fill="#ffffff" fill-opacity="0.68"/>
</svg>