<?xml version="1.0" encoding="UTF-8"?>
<svg width="1024" height="1024" viewBox="0 0 1024 1024" fill="none" xmlns="http://www.w3.org/2000/svg">
  <defs>
    <linearGradient id="bg" x1="140" y1="80" x2="900" y2="940" gradientUnits="userSpaceOnUse">
      <stop stop-color="#0f766e"/>
      <stop offset="1" stop-color="#0f766e"/>
    </linearGradient>
    <filter id="shadow" x="140" y="116" width="744" height="792" filterUnits="userSpaceOnUse" color-interpolation-filters="sRGB">
      <feDropShadow dx="0" dy="26" stdDeviation="24" flood-color="#0f172a" flood-opacity="0.16"/>
    </filter>
  </defs>
  <rect width="1024" height="1024" rx="240" fill="url(#bg)"/>
  <circle cx="190" cy="180" r="94" fill="#99f6e4" fill-opacity="0.26"/>
  <circle cx="844" cy="208" r="64" fill="white" fill-opacity="0.14"/>
  <circle cx="838" cy="838" r="118" fill="#99f6e4" fill-opacity="0.16"/>
  <g filter="url(#shadow)">
    <rect x="156" y="156" width="712" height="712" rx="188" fill="white" fill-opacity="0.94"/>
  </g>
  <circle cx="512" cy="512" r="250" fill="#99f6e4" fill-opacity="0.28"/>
  <circle cx="512" cy="512" r="206" fill="white" fill-opacity="0.96"/>
  
  <circle cx="512" cy="448" r="118" fill="#99f6e4"/>
  <circle cx="448" cy="500" r="88" fill="#bbf7d0"/>
  <circle cx="586" cy="506" r="78" fill="#a7f3d0"/>
  <rect x="486" y="544" width="52" height="132" rx="22" fill="#92400e"/>
  <path d="M744 274L756 304L786 316L756 328L744 358L732 328L702 316L732 304L744 274Z" fill="#ffffff" fill-opacity="0.82"/>
  <path d="M286 720L298 748L326 760L298 772L286 800L274 772L246 760L274 748L286 720Z" fill="#ffffff" fill-opacity="0.68"/>
</svg>