<?xml version="1.0" encoding="UTF-8"?>
<svg width="1024" height="1024" viewBox="0 0 1024 1024" fill="none" xmlns="http://www.w3.org/2000/svg">
  <defs>
    <linearGradient id="bg" x1="140" y1="80" x2="900" y2="940" gradientUnits="userSpaceOnUse">
      <stop stop-color="#ea580c"/>
      <stop offset="1" stop-color="#c2410c"/>
    </linearGradient>
    <filter id="shadow" x="140" y="116" width="744" height="792" filterUnits="userSpaceOnUse" color-interpolation-filters="sRGB">
      <feDropShadow dx="0" dy="26" stdDeviation="24" flood-color="#0f172a" flood-opacity="0.16"/>
    </filter>
  </defs>
  <rect width="1024" height="1024" rx="240" fill="url(#bg)"/>
  <circle cx="190" cy="180" r="94" fill="#fdba74" fill-opacity="0.26"/>
  <circle cx="844" cy="208" r="64" fill="white" fill-opacity="0.14"/>
  <circle cx="838" cy="838" r="118" fill="#fdba74" fill-opacity="0.16"/>
  <g filter="url(#shadow)">
    <rect x="156" y="156" width="712" height="712" rx="188" fill="white" fill-opacity="0.94"/>
  </g>
  <circle cx="512" cy="512" r="250" fill="#fdba74" fill-opacity="0.28"/>
  <circle cx="512" cy="512" r="206" fill="white" fill-opacity="0.96"/>
  
  <path d="M404 420H620V554C620 620 574 668 512 668C450 668 404 620 404 554V420Z" fill="#ffffff"/>
  <path d="M620 446H654C690 446 716 470 716 504C716 538 690 562 654 562H620" stroke="#ea580c" stroke-width="20" stroke-linecap="round" stroke-linejoin="round"/>
  <path d="M446 382C446 354 470 336 470 308M520 382C520 354 544 336 544 308" stroke="#fdba74" stroke-width="16" stroke-linecap="round"/>
  <path d="M744 274L756 304L786 316L756 328L744 358L732 328L702 316L732 304L744 274Z" fill="#ffffff" fill-opacity="0.82"/>
  <path d="M286 720L298 748L326 760L298 772L286 800L274 772L246 760L274 748L286 720Z" fill="#ffffff" fill-opacity="0.68"/>
</svg>